<svg width="18" height="18" viewBox="0 0 18 18" fill="none" xmlns="http://www.w3.org/2000/svg">
<path d="M9.644 17.6972L9.98599 11.1971C10.02 10.5427 10.543 10.0207 11.198 9.98576L17.698 9.64377C17.867 9.63424 18 9.49448 18 9.32507V8.67493C18 8.50446 17.867 8.3647 17.698 8.35623L11.198 8.01424C10.543 7.97929 10.02 7.45625 9.98599 6.80189L9.644 0.301769C9.635 0.132357 9.495 0 9.325 0H8.675C8.505 0 8.365 0.132357 8.356 0.301769L8.01401 6.80189C7.98001 7.45625 7.457 7.97929 6.802 8.01424L0.302002 8.35623C0.133002 8.3647 0 8.50446 0 8.67493V9.32507C0 9.49448 0.133002 9.63424 0.302002 9.64377L6.802 9.98576C7.457 10.0207 7.98001 10.5427 8.01401 11.1971L8.356 17.6972C8.365 17.8666 8.505 18 8.675 18H9.325C9.495 18 9.635 17.8666 9.644 17.6972Z" fill="#BCBCC0"/>
</svg>
